Simulation
nRows=19
nColumns=15
endheader
time  TH_x TH_y TH_z SC_y  SC_z  SC_x  AC_y  AC_z  AC_x  GH_y  GH_z  GH_yy  EL_x  PS_y
0.0  0.000000  0.000000  0.000000  -29.76945641602229  0.3433007836020673  -5.929499616807601  52.81594315659658  11.088696760354226  -3.3151272918357395  76.2074584056825  3.013304220577598  -48.841543819020984  22.812987586609285  0.000000
0.03099999999999998  0.000000  0.000000  0.000000  -29.757712178914673  0.22473233291970723  -4.6426399582271385  52.786751364998324  10.253985627528085  -4.328517848056703  75.17890546868574  3.15688682181606  -47.8093288939766  22.7681746586545  0.000000
0.06199999999999996  0.000000  0.000000  0.000000  -29.72101520803165  0.09333784426858131  -3.4006435279824174  52.769805692670595  9.416378318386629  -5.31225714913693  74.69955842509282  3.3268088730013665  -47.33033597824605  22.726851844656203  0.000000
0.09299999999999994  0.000000  0.000000  0.000000  -29.679614551681013  -0.04548877568870344  -2.2147494149976885  52.7585502777812  8.59463766667681  -6.2555218115216045  74.40506332562389  3.5344876776587872  -47.06281012489964  22.669422841723424  0.000000
0.12399999999999992  0.000000  0.000000  0.000000  -29.63908932769159  -0.18313546896029914  -1.0915854409376102  52.74958647366179  7.801899336108726  -7.149356075619632  73.99790911991843  3.7899155725838876  -46.728165757221625  22.583976620800705  0.000000
0.1549999999999999  0.000000  0.000000  0.000000  -29.611540280199765  -0.3141865958375924  -0.03515059708840761  52.742073034105864  7.047778720520502  -7.987338578661144  73.23670300081675  4.105759544808201  -46.10683411980944  22.464526264153292  0.000000
0.1859999999999999  0.000000  0.000000  0.000000  -29.60150156283802  -0.43329897528542555  0.9529081807300711  52.735533407525104  6.338276019808383  -8.76426225612912  72.00966189907405  4.491351128347095  -45.105463766442554  22.311807284177867  0.000000
0.21699999999999986  0.000000  0.000000  0.000000  -29.612377131691318  -0.5369977074972551  1.872491762108836  52.73186809920532  5.676669020705413  -9.476559128667052  70.3025201697366  4.9545782102546365  -43.723609916148156  22.13168108947909  0.000000
0.24799999999999983  0.000000  0.000000  0.000000  -29.6440979697165  -0.623280740577927  2.7242754021193742  52.73291183888926  5.064611972535208  -10.121572537741695  68.18919729128221  5.501068232136007  -42.045116957972226  21.933204031932373  0.000000
0.2789999999999998  0.000000  0.000000  0.000000  -29.694179490009674  -0.6917082114987632  3.509224760613254  52.7419137256269  4.502676453700722  -10.697386522861883  65.77889679504275  6.1342994702032225  -40.183102720045035  21.727958958689964  0.000000
0.3099999999999998  0.000000  0.000000  0.000000  -29.758720673197175  -0.7432982776713225  4.2280280519337525  52.762255788262195  3.991096962086503  -11.202334197837912  63.185585454393824  6.855827967689104  -38.25135518596457  21.529896632985746  0.000000
0.34099999999999975  0.000000  0.000000  0.000000  -29.833330473677  -0.7801781857650472  4.880767983100334  52.797863306469736  3.5298465231639513  -11.634838516954785  60.50225737333965  7.665824865041583  -36.33858040546473  21.354624648104494  0.000000
0.3719999999999998  0.000000  0.000000  0.000000  -29.914203135915105  -0.8050369770059648  5.466729251142769  52.85237243796759  3.118921280222008  -11.993488965195569  57.794290352304444  8.563760602524132  -34.50253259522199  21.21843419849174  0.000000
0.40299999999999975  0.000000  0.000000  0.000000  -29.998087700807456  -0.8202781629624536  5.98465169654554  52.9284836412098  2.7584077646941743  -12.277202969052118  55.10275767368746  9.549101103917877  -32.77266515532286  21.134992806196475  0.000000
0.4339999999999997  0.000000  0.000000  0.000000  -30.08172339828846  -0.82728424513901  6.433454567878206  53.02710190901243  2.4487653667149942  -12.485833326168828  52.45327965582621  10.621372684156713  -31.15754609117134  21.111699604072832  0.000000
0.4649999999999997  0.000000  0.000000  0.000000  -30.1610833610806  -0.8255733842918993  6.81281526893981  53.146937671961105  2.190928645993605  -12.620682990660535  49.866403511620184  11.779888679817605  -29.654913331558  21.146137048419057  0.000000
0.49599999999999966  0.000000  0.000000  0.000000  -30.231870491585703  -0.8127427519665786  7.12406446990945  53.2843134066784  1.9863134480631628  -12.684936837619748  47.36353239658813  13.023378350167922  -28.25887836518487  21.225618307009764  0.000000
0.5269999999999997  0.000000  0.000000  0.000000  -30.290770829600874  -0.7850552386923692  7.3711406912131485  53.43316051058368  1.836205908741988  -12.684065082126468  44.96819509616442  14.349634209638829  -26.964598170801143  21.330391761055463  0.000000
0.5579999999999996  0.000000  0.000000  0.000000  -30.336979949055337  -0.7381115280740383  7.5607694125102585  53.586294818643125  1.7410864991730053  -12.625917065214253  42.70515736952837  15.75531938249409  -25.77155842445055  21.439062475756195  0.000000
